<svg width="0" height="0" class="hidden">
  <symbol xmlns="http://www.w3.org/2000/svg" viewBox="0 0 32 32" id="icon-cart">
    <title>cart</title>
    <path d="M12 29a3 3 0 1 1-6 0 3 3 0 0 1 6 0zm20 0a3 3 0 1 1-6 0 3 3 0 0 1 6 0zm0-13V4H8a2 2 0 0 0-2-2H0v2h4l1.502 12.877A4 4 0 0 0 8 24h24v-2H8a2 2 0 0 1-2-2v-.02L32 16z"></path>
  </symbol>
  <symbol xmlns="http://www.w3.org/2000/svg" viewBox="0 0 32 32" id="icon-switch">
    <title>switch</title>
    <path d="M20 4.581V8.83a10 10 0 0 1 3.071 2.099C24.96 12.818 26 15.329 26 18s-1.04 5.182-2.929 7.071C21.182 26.96 18.671 28 16 28s-5.182-1.04-7.071-2.929C7.04 23.182 6 20.671 6 18s1.04-5.182 2.929-7.071A9.982 9.982 0 0 1 12 8.83V4.581C6.217 6.302 2 11.658 2 18c0 7.732 6.268 14 14 14s14-6.268 14-14c0-6.342-4.217-11.698-10-13.419zM14 0h4v16h-4z"></path>
  </symbol>
</svg>